:version 1.10
:name ASF
:units
  mass 1
  length 1
  angle deg
:documentation
  ASF file generated by Kaydara
:root
  axis xyz
  order  tx ty tz rx ry rz
  position 0 0 0
  orientation 0 0 0
:bonedata
  begin
    id 1
    name RightUpLegDummy
    direction -1 2.30186e-007 8.31532e-007
    length 4.46685
    axis 0 0 0 xyz
  end
  begin
    id 2
    name RightUpLeg
    direction -2.30187e-007 -1 1.24343e-010
    length 16.4045
    axis -3.49089 -0.000906625 0.000286804 xyz
    dof rx ry rz
  end
  begin
    id 3
    name RightLeg
    direction -2.30181e-007 -1 -4.17157e-009
    length 17.5097
    axis 3.68512 0.0193738 -0.131023 xyz
    dof rx ry rz
  end
  begin
    id 4
    name RightFoot
    direction 8.31421e-007 -4.51202e-011 1
    length 6.49508
    axis 4.81691e-005 -0.120479 -0.188788 xyz
    dof rx ry rz
  end
  begin
    id 5
    name RightToes
    direction 0.00124746 -0.014064 0.9999
    length 3.85082
    axis 0.000481921 0.542163 -0.142578 xyz
    dof rx ry rz
  end
  begin
    id 6
    name SpineDummy
    direction 0.0717043 0.9409 -0.331007
    length 10.0032
    axis 0 0 0 xyz
  end
  begin
    id 7
    name Spine
    direction 2.30186e-007 1 4.58806e-011
    length 9.84055
    axis -0.001389 0.000121418 2.40972e-006 xyz
    dof rx ry rz
  end
  begin
    id 8
    name Spine1
    direction 0 0 0
    length 0
    axis -0.001389 0.000121451 1.30017e-006 xyz
    dof rx ry rz
  end
  begin
    id 9
    name HEadDummy
    direction -0.00347485 0.950688 -0.310128
    length 8.00997
    axis -0.001389 0.000121451 1.30017e-006 xyz
  end
  begin
    id 10
    name HEad
    direction -0.0222688 0.980941 0.193023
    length 5.12695
    axis -0.001389 0.000121451 1.30017e-006 xyz
    dof rx ry rz
  end
  begin
    id 11
    name LeftShoulder1Dummy
    direction 0.988871 0.146793 -0.0242004
    length 3.5792
    axis -0.001389 0.000121451 1.30017e-006 xyz
  end
  begin
    id 12
    name LeftShoulder1
    direction 0.993832 0.108932 0.020779
    length 4.16823
    axis -0.001389 0.000121451 1.30017e-006 xyz
    dof rx ry rz
  end
  begin
    id 13
    name LeftArm
    direction 1 3.44807e-006 -8.31404e-007
    length 9.91437
    axis -23.1894 0.134784 0.967509 xyz
    dof rx ry rz
  end
  begin
    id 14
    name LeftForeArm
    direction 1 3.44842e-006 -8.31581e-007
    length 9.08575
    axis -9.91835 -0.06569 -0.177793 xyz
    dof rx ry rz
  end
  begin
    id 15
    name LeftHand
    direction 0.992938 -0.0411636 0.11126
    length 5.32135
    axis -0.00960232 -0.00340091 0.185173 xyz
    dof rx ry rz
  end
  begin
    id 16
    name RightShoulderDummy
    direction -0.988871 0.146793 -0.0241962
    length 3.5792
    axis -0.001389 0.000121451 1.30017e-006 xyz
  end
  begin
    id 17
    name RightShoulder
    direction -0.993832 0.108933 0.0207785
    length 4.16823
    axis 0.215806 0.000203643 -0.0068026 xyz
    dof rx ry rz
  end
  begin
    id 18
    name RightArm
    direction -1 3.90912e-006 8.31284e-007
    length 9.91437
    axis -23.2009 -0.134239 -0.964101 xyz
    dof rx ry rz
  end
  begin
    id 19
    name RightForeArm
    direction -1 3.90882e-006 8.31502e-007
    length 9.08575
    axis -9.92322 0.0658061 0.178867 xyz
    dof rx ry rz
  end
  begin
    id 20
    name RightHand
    direction -0.992843 -0.0414603 0.112003
    length 5.28593
    axis -0.00960638 0.00330671 -0.185228 xyz
    dof rx ry rz
  end
  begin
    id 21
    name LeftUpLegDummy
    direction 1 -2.30186e-007 -8.31532e-007
    length 4.46685
    axis 0 0 0 xyz
  end
  begin
    id 22
    name LeftUpLeg
    direction -2.30187e-007 -1 6.00931e-010
    length 16.4045
    axis -3.48766 0.00143442 -0.000524262 xyz
    dof rx ry rz
  end
  begin
    id 23
    name LeftLeg
    direction -2.30187e-007 -1 1.6669e-009
    length 17.5097
    axis 3.68178 -0.00654042 -0.000285133 xyz
    dof rx ry rz
  end
  begin
    id 24
    name LeftFoot
    direction 8.31532e-007 -4.54478e-011 1
    length 6.49508
    axis 1.87233e-006 4.66016e-005 -8.6538e-006 xyz
    dof rx ry rz
  end
  begin
    id 25
    name LeftToes
    direction 0.00818058 -0.00485161 0.999955
    length 3.85048
    axis 1.06247e-005 4.65869e-005 -8.65513e-006 xyz
    dof rx ry rz
  end
:hierarchy
  begin
    root RightUpLegDummy SpineDummy LeftUpLegDummy
    RightUpLegDummy RightUpLeg
    RightUpLeg RightLeg
    RightLeg RightFoot
    RightFoot RightToes
    SpineDummy Spine
    Spine Spine1
    Spine1 HEadDummy LeftShoulder1Dummy RightShoulderDummy
    HEadDummy HEad
    LeftShoulder1Dummy LeftShoulder1
    LeftShoulder1 LeftArm
    LeftArm LeftForeArm
    LeftForeArm LeftHand
    RightShoulderDummy RightShoulder
    RightShoulder RightArm
    RightArm RightForeArm
    RightForeArm RightHand
    LeftUpLegDummy LeftUpLeg
    LeftUpLeg LeftLeg
    LeftLeg LeftFoot
    LeftFoot LeftToes
  end

:SAMPLES-PER-SECOND 30
:FULLY-SPECIFIED
:DEGREES
1
root  -50.7418 30.3326 -22.8304 -179.197 3.73892 165.51
RightUpLeg  -7.06847 9.93178 0.844885
RightLeg  55.8725 -7.07267 -9.07665
RightFoot  -30.4575 1.53594 6.01548
RightToes  -2.85545 -0.00777572 -0.02683
Spine  7.50617 0.262318 -2.06064
Spine1  14.151 1.64334 -5.26945
HEad  22.1888 -48.0348 32.0443
LeftShoulder1  0 -2.42657e-020 -4.95415e-022
LeftArm  -28.9508 49.1638 -104.31
LeftForeArm  -138.413 -41.0151 -8.3218
LeftHand  4.91136 -31.624 -17.5957
RightShoulder  0 2.42657e-020 1.07489e-018
RightArm  -8.5609 0.792632 89.6944
RightForeArm  38.6662 31.8714 6.28279
RightHand  -1.3715 23.3812 -6.25278
LeftUpLeg  -24.7029 -14.0605 10.1189
LeftLeg  30.2047 -5.6014 -2.79262
LeftFoot  13.2934 0.156054 -1.33913
LeftToes  -49.0915 1.18758e-006 1.19596e-007
2
root  -51.6996 29.4073 -24.5677 -179.884 9.23752 163.814
RightUpLeg  -9.01067 6.27266 -2.46991
RightLeg  65.024 -8.69543 -15.5603
RightFoot  -29.6499 2.36173 9.28413
RightToes  -14.1927 -0.0515053 -0.128571
Spine  7.65623 0.154923 -2.12446
Spine1  14.2661 1.63058 -5.74026
HEad  21.6272 -47.9278 31.5117
LeftShoulder1  0 -2.42657e-020 -4.95415e-022
LeftArm  -24.3057 48.2554 -96.3596
LeftForeArm  -136.61 -39.6165 -7.90467
LeftHand  6.26216 -30.5022 -23.0638
RightShoulder  0 2.42657e-020 1.07489e-018
RightArm  -12.2887 1.54701 89.6027
RightForeArm  41.3098 29.3339 5.67059
RightHand  -1.33411 23.1958 -6.12547
LeftUpLeg  -22.296 -5.89173 7.02902
LeftLeg  35.8969 -7.58896 -4.76146
LeftFoot  1.50409 0.0022251 -0.169522
LeftToes  -53.8265 1.18758e-006 1.19596e-007
3
root  -52.8835 28.4624 -26.0203 179.001 13.5753 160.939
RightUpLeg  -15.661 4.93537 -7.05236
RightLeg  79.7854 -6.12437 -23.6051
RightFoot  -22.0815 1.90297 10.1082
RightToes  -21.6593 -0.0909005 -0.190028
Spine  8.03238 0.0359892 -2.54382
Spine1  14.6934 1.74024 -7.10627
HEad  20.305 -47.6175 32.0589
LeftShoulder1  0 -2.42657e-020 -4.95415e-022
LeftArm  -18.3521 45.4804 -85.8559
LeftForeArm  -133.917 -39.4959 -7.87365
LeftHand  6.30453 -29.7771 -23.781
RightShoulder  0 2.42657e-020 1.07489e-018
RightArm  -17.4347 2.56046 89.2183
RightForeArm  44.2692 27.5348 5.2536
RightHand  -1.67743 23.1295 -7.81614
LeftUpLeg  -20.5412 -1.42831 2.33774
LeftLeg  40.3942 -5.85296 -4.35404
LeftFoot  -9.55396 0.102818 1.2303
LeftToes  -50.7958 1.18758e-006 1.19596e-007
4
root  -53.7189 27.567 -27.3482 176.888 16.6509 159.165
RightUpLeg  -23.2756 5.30894 -8.67788
RightLeg  93.0415 -0.269784 -30.9576
RightFoot  -10.5278 0.599049 6.87318
RightToes  -9.70255 -0.0317835 -0.0893279
Spine  9.2896 -0.183098 -2.45435
Spine1  16.8223 1.78305 -7.91267
HEad  15.9608 -46.1794 35.0424
LeftShoulder1  0 -2.42657e-020 -4.95415e-022
LeftArm  -14.9989 38.2643 -76.3754
LeftForeArm  -130.284 -38.463 -7.5822
LeftHand  6.24638 -29.2672 -23.9817
RightShoulder  0 2.42657e-020 1.07489e-018
RightArm  -22.3677 4.23507 88.2715
RightForeArm  46.7832 27.7603 5.30063
RightHand  -2.16703 22.8805 -10.3115
LeftUpLeg  -20.5124 -5.11469 -1.09671
LeftLeg  48.6959 -0.889934 -0.897394
LeftFoot  -16.5427 0.0512358 0.352433
LeftToes  -49.4375 1.18758e-006 1.19596e-007
5
root  -53.9741 27.0472 -28.5689 174.446 19.7296 158.588
RightUpLeg  -30.0363 6.14188 -7.93409
RightLeg  101.33 2.82033 -19.2038
RightFoot  -8.86052 0.264484 3.79054
RightToes  -9.96091 -0.0328344 -0.0916268
Spine  11.1311 0.218422 -1.84573
Spine1  20.1426 3.10565 -7.96543
HEad  11.69 -44.4134 37.792
LeftShoulder1  0 -2.42657e-020 -4.95415e-022
LeftArm  -14.6491 25.7088 -69.1265
LeftForeArm  -131.025 -33.0615 -6.14873
LeftHand  6.17999 -29.0163 -23.9425
RightShoulder  0 2.42657e-020 1.07489e-018
RightArm  -27.2894 5.48908 86.4735
RightForeArm  42.9546 29.9007 5.80154
RightHand  -2.77008 22.2381 -13.6605
LeftUpLeg  -17.6544 -3.5945 -2.66739
LeftLeg  52.5385 0.234895 0.260743
LeftFoot  -21.0537 -0.0320983 -0.172744
LeftToes  -48.1421 1.18758e-006 1.19596e-007
6
root  -53.9727 26.8241 -29.6107 174.422 21.7535 159.308
RightUpLeg  -38.3654 2.77014 -5.28502
RightLeg  104.004 2.12271 -10.7225
RightFoot  -12.4498 0.283544 2.97682
RightToes  -20.5408 -0.0844942 -0.181157
Spine  11.8581 0.519342 -0.995387
Spine1  21.6005 3.79102 -7.01593
HEad  9.01556 -43.1116 39.772
LeftShoulder1  0 -2.42657e-020 -4.95415e-022
LeftArm  -16.5696 11.4807 -64.6028
LeftForeArm  -131.71 -23.4909 -3.99057
LeftHand  6.38307 -28.6952 -24.9715
RightShoulder  0 2.42657e-020 1.07489e-018
RightArm  -34.6247 6.4357 85.0961
RightForeArm  43.0792 30.2637 5.88749
RightHand  -3.15566 21.0821 -16.4754
LeftUpLeg  -15.6636 -1.97142 -2.48869
LeftLeg  53.4503 0.516751 0.602417
LeftFoot  -24.169 -0.0879883 -0.410978
LeftToes  -46.7278 1.18758e-006 1.19596e-007
7
root  -53.8809 26.742 -30.504 177.048 21.5403 161.392
RightUpLeg  -48.6545 -4.42001 -0.9304
RightLeg  101.998 2.32376 -14.6055
RightFoot  -17.6586 0.720601 5.01438
RightToes  -10.5746 -0.0353722 -0.0970686
Spine  12.322 -0.199795 0.208145
Spine1  22.4257 1.84561 -4.85758
HEad  6.89325 -41.1049 40.4441
LeftShoulder1  0 -2.42657e-020 -4.95415e-022
LeftArm  -18.0029 -0.544529 -62.1878
LeftForeArm  -134.035 -19.0412 -3.09448
LeftHand  7.20632 -28.1336 -28.5899
RightShoulder  0 2.42657e-020 1.07489e-018
RightArm  -38.7538 9.38302 82.0525
RightForeArm  44.9139 29.4098 5.68321
RightHand  -3.80723 19.6917 -21.3191
LeftUpLeg  -16.0099 -2.53356 -1.08666
LeftLeg  53.8504 0.641376 0.760406
LeftFoot  -26.3943 -0.118469 -0.505215
LeftToes  -45.9809 1.18758e-006 1.19596e-007
8
root  -53.5161 26.825 -31.5362 179.762 22.0085 163.437
RightUpLeg  -58.1814 -9.14351 2.96571
RightLeg  95.9921 0.561233 -10.6885
RightFoot  -19.3866 0.57332 3.73317
RightToes  -12.8741 -0.0453955 -0.117208
Spine  13.4146 -0.772628 1.5919
Spine1  23.8973 -0.355401 -1.89786
HEad  4.93174 -39.4708 40.3246
LeftShoulder1  0 -2.42657e-020 -4.95415e-022
LeftArm  -19.537 -10.0577 -60.8455
LeftForeArm  -135.506 -20.5015 -3.37934
LeftHand  7.39197 -27.9566 -29.4714
RightShoulder  0 2.42657e-020 1.07489e-018
RightArm  -41.439 14.5421 77.0364
RightForeArm  47.12 27.8798 5.32716
RightHand  -4.2509 18.7728 -24.9458
LeftUpLeg  -15.2096 -2.57718 0.548565
LeftLeg  52.4886 1.02465 1.16241
LeftFoot  -27.5326 -0.187513 -0.765357
LeftToes  -45.7361 1.18758e-006 1.19596e-007
9
root  -52.9238 26.9892 -32.6819 -177.96 24.5689 164.369
RightUpLeg  -66.167 -10.1509 5.42612
RightLeg  86.2525 -0.629189 -5.60069
RightFoot  -18.5994 0.205494 1.63248
RightToes  -20.2154 -0.0826629 -0.178552
Spine  14.8626 -0.470684 2.57954
Spine1  25.6576 -1.01223 0.485329
HEad  1.98167 -37.7547 40.5078
LeftShoulder1  0 -2.42657e-020 -4.95415e-022
LeftArm  -20.7675 -18.5481 -59.5521
LeftForeArm  -139.848 -22.4285 -3.76083
LeftHand  7.62811 -27.9489 -30.3705
RightShoulder  0 2.42657e-020 1.07489e-018
RightArm  -42.7088 21.0035 71.0697
RightForeArm  49.9976 25.5864 4.81262
RightHand  -4.73595 18.4506 -28.2081
LeftUpLeg  -12.3903 -0.305112 1.40375
LeftLeg  48.3325 1.47847 1.45303
LeftFoot  -27.5862 -0.253527 -1.0327
LeftToes  -46.2509 1.18758e-006 1.19596e-007
10
root  -52.1662 27.1393 -33.8623 -174.615 26.3347 165.281
RightUpLeg  -72.8814 -11.3333 8.08518
RightLeg  73.8293 -1.96298 -5.63837
RightFoot  -18.4014 0.180271 1.49051
RightToes  -21.5554 -0.090298 -0.189209
Spine  15.7391 -0.137821 3.80581
Spine1  26.4702 -1.58536 3.063
HEad  -0.628828 -36.2512 40.0596
LeftShoulder1  0 -2.42657e-020 -4.95415e-022
LeftArm  -21.9487 -26.0889 -58.9333
LeftForeArm  -143.204 -24.274 -4.1381
LeftHand  7.94239 -27.8519 -31.6589
RightShoulder  0 2.42657e-020 1.07489e-018
RightArm  -45.8302 27.6517 64.7623
RightForeArm  54.0124 23.2134 4.29868
RightHand  -4.90025 19.0027 -28.321
LeftUpLeg  -10.3901 1.0849 2.19273
LeftLeg  43.6872 2.16851 1.81286
LeftFoot  -26.5698 -0.33291 -1.40991
LeftToes  -46.6209 1.18758e-006 1.19596e-007
11
root  -51.3408 27.1528 -35.0536 -171.022 27.2643 165.284
RightUpLeg  -78.9138 -12.6517 10.0843
RightLeg  61.3473 -5.4407 -8.607
RightFoot  -18.2472 0.377515 2.72804
RightToes  -14.6153 -0.0535185 -0.132182
Spine  15.9682 0.221429 4.80248
Spine1  26.208 -2.01472 5.38591
HEad  -3.88549 -35.3229 40.028
LeftShoulder1  0 -2.42657e-020 -4.95415e-022
LeftArm  -23.0542 -32.9877 -59.3168
LeftForeArm  -145.264 -26.2771 -4.56237
LeftHand  8.32337 -28.2596 -32.6203
RightShoulder  0 2.42657e-020 1.07489e-018
RightArm  -47.6593 32.858 58.2645
RightForeArm  55.7051 22.0937 4.06293
RightHand  -4.99265 19.0798 -28.7246
LeftUpLeg  -9.80911 1.80923 2.23357
LeftLeg  40.4816 2.88135 2.14817
LeftFoot  -24.2912 -0.37608 -1.74734
LeftToes  -48.0219 1.18758e-006 1.19596e-007
12
root  -50.3953 26.9768 -36.4356 -168.979 28.2365 163.95
RightUpLeg  -83.3374 -13.5711 10.8204
RightLeg  51.3867 -9.16371 -9.97067
RightFoot  -18.3994 0.563347 3.85498
RightToes  -9.476 -0.0308705 -0.0873081
Spine  16.3556 0.674717 5.4126
Spine1  26.3958 -1.87808 6.70244
HEad  -7.35701 -34.4502 40.0665
LeftShoulder1  0 -2.42657e-020 -4.95415e-022
LeftArm  -24.0854 -38.4851 -60.8069
LeftForeArm  -145.285 -29.6985 -5.32601
LeftHand  8.53234 -27.776 -33.9546
RightShoulder  0 2.42657e-020 1.07489e-018
RightArm  -49.4985 37.5531 51.9666
RightForeArm  60.5798 21.3615 3.90236
RightHand  -5.64918 19.0999 -32.3291
LeftUpLeg  -8.42974 2.91733 1.35683
LeftLeg  38.2043 2.98149 2.04405
LeftFoot  -20.931 -0.324948 -1.75905
LeftToes  -51.5864 1.18758e-006 1.19596e-007
13
root  -49.2155 26.5811 -38.027 -168.268 28.6336 162.484
RightUpLeg  -86.1721 -14.6361 10.147
RightLeg  47.2586 -9.98569 -9.39929
RightFoot  -19.2828 0.643266 4.16294
RightToes  -9.66872 -0.0316466 -0.0890265
Spine  16.9753 0.985942 6.11542
Spine1  27.2096 -1.63004 7.62109
HEad  -11.02 -33.791 40.2223
LeftShoulder1  0 -2.42657e-020 -4.95415e-022
LeftArm  -23.4834 -42.9928 -63.4145
LeftForeArm  -148.179 -33.5874 -6.2582
LeftHand  9.09283 -27.194 -36.7756
RightShoulder  0 2.42657e-020 1.07489e-018
RightArm  -51.3208 41.5789 46.7192
RightForeArm  67.033 21.558 3.92642
RightHand  -6.14027 18.8226 -35.5031
LeftUpLeg  -5.47035 4.96431 1.43625
LeftLeg  36.0069 1.0346 0.649977
LeftFoot  -16.8082 -0.165966 -1.12334
LeftToes  -58.7524 1.18758e-006 1.19596e-007
14
root  -47.9351 26.0262 -39.6113 -167.763 29.3414 160.635
RightUpLeg  -88.463 -14.6449 8.56475
RightLeg  50.5089 -13.7025 -14.2007
RightFoot  -19.3452 1.02059 6.36045
RightToes  6.71628 0.0129542 0.0643821
Spine  17.1749 1.47532 6.70028
Spine1  27.3232 -0.827608 8.52662
HEad  -14.2051 -34.321 40.0728
LeftShoulder1  0 -2.42657e-020 -4.95415e-022
LeftArm  -21.1312 -45.9764 -69.4355
LeftForeArm  -156.947 -36.2316 -6.93996
LeftHand  9.82926 -27.7102 -38.8184
RightShoulder  0 2.42657e-020 1.07489e-018
RightArm  -49.0036 43.36 41.6957
RightForeArm  70.5954 23.7513 4.3714
RightHand  -6.50017 19.0632 -37.0116
LeftUpLeg  -2.95352 7.17039 1.81168
LeftLeg  34.8766 -2.33115 -1.41529
LeftFoot  -11.7232 -0.0479538 -0.467106
LeftToes  -68.3648 1.18758e-006 1.19596e-007
15
root  -46.611 25.3806 -41.082 -167.325 30.7323 158.55
RightUpLeg  -94.8651 -15.6377 11.5703
RightLeg  59.3252 -8.69168 -12.5351
RightFoot  -15.0378 0.378632 3.2458
RightToes  9.82027 0.0163739 0.0945537
Spine  17.4234 2.25091 6.91887
Spine1  27.5014 0.831133 8.56878
HEad  -16.562 -35.3475 40.5995
LeftShoulder1  0 -2.42657e-020 -4.95415e-022
LeftArm  -17.4183 -47.3119 -77.1866
LeftForeArm  -161.511 -38.9536 -7.6968
LeftHand  9.91647 -28.9424 -37.5379
RightShoulder  0 2.42657e-020 1.07489e-018
RightArm  -47.1786 45.6015 37.5644
RightForeArm  74.9872 22.2828 4.05271
RightHand  -6.78863 20.2758 -36.3421
LeftUpLeg  -2.78421 9.39055 2.40039
LeftLeg  38.0477 -6.98944 -4.76179
LeftFoot  -5.3633 -0.0236452 -0.504836
LeftToes  -76.1288 1.18758e-006 1.19596e-007
